<?xml version="1.0" standalone="no"?>
<!DOCTYPE svg PUBLIC "-//W3C//DTD SVG 20010904//EN"
 "http://www.w3.org/TR/2001/REC-SVG-20010904/DTD/svg10.dtd">
<svg version="1.0" xmlns="http://www.w3.org/2000/svg"
 width="396.000000pt" height="396.000000pt" viewBox="0 0 396.000000 396.000000"
 preserveAspectRatio="xMidYMid meet">
<metadata>
Created by potrace 1.14, written by Peter Selinger 2001-2017
</metadata>
<g transform="translate(0.000000,396.000000) scale(0.100000,-0.100000)"
fill="#000000" stroke="none">
<path d="M210 3835 c0 -3 40 -78 88 -168 49 -89 110 -202 137 -252 26 -49 56
-103 65 -120 21 -36 60 -107 125 -230 27 -49 67 -124 90 -165 23 -41 66 -120
95 -175 29 -55 60 -113 70 -130 18 -31 58 -104 125 -230 21 -38 63 -117 95
-175 32 -58 74 -136 95 -175 21 -38 65 -119 98 -180 104 -190 113 -208 152
-280 84 -157 109 -202 133 -245 l26 -45 1 -560 0 -560 333 -3 c262 -2 332 0
333 10 0 7 1 261 1 564 l0 552 28 43 c15 24 71 123 125 219 54 96 131 231 170
300 40 69 84 148 100 175 15 28 73 131 129 230 57 99 181 317 276 485 95 168
228 402 295 520 68 119 135 238 150 265 16 28 63 112 106 187 44 75 79 140 79
143 0 3 -150 5 -332 5 l-333 0 -70 -132 c-38 -72 -86 -161 -105 -197 -20 -36
-59 -109 -87 -161 -28 -52 -62 -115 -75 -140 -14 -25 -47 -85 -73 -135 -26
-49 -60 -112 -75 -140 -15 -27 -46 -86 -70 -130 -72 -135 -122 -228 -148 -275
-14 -25 -47 -88 -75 -140 -27 -52 -57 -108 -67 -125 -9 -16 -41 -75 -70 -130
-29 -55 -60 -113 -70 -130 -9 -16 -39 -70 -65 -120 -26 -49 -53 -97 -59 -107
-10 -14 -31 22 -130 215 -66 128 -158 309 -206 402 -161 313 -266 518 -416
810 -81 160 -187 367 -235 460 l-87 170 -336 3 c-185 1 -336 0 -336 -3z"/>
<path d="M1825 3826 c-203 -53 -298 -187 -304 -431 -7 -285 113 -452 347 -481
178 -22 331 13 426 97 48 42 101 152 116 241 17 97 8 246 -19 321 -43 124
-110 196 -221 238 -70 27 -269 36 -345 15z"/>
</g>
</svg>
